<mxfile host="Electron" modified="2023-11-09T03:46:42.061Z" agent="Mozilla/5.0 (Macintosh; Intel Mac OS X 10_15_7) AppleWebKit/537.36 (KHTML, like Gecko) draw.io/22.0.3 Chrome/114.0.5735.289 Electron/25.8.4 Safari/537.36" etag="Kp-jU1nRLltqX2wee02Y" version="22.0.3" type="device">
  <diagram name="Chp8 Disconnected" id="_EOuFgVOPqxHIM8bU6si">
    <mxGraphModel dx="747" dy="545" grid="1" gridSize="10" guides="1" tooltips="1" connect="1" arrows="1" fold="1" page="1" pageScale="1" pageWidth="850" pageHeight="1100" math="0" shadow="0">
      <root>
        <mxCell id="XpTiEpnGM_Ns3KIpH3hn-0" />
        <mxCell id="XpTiEpnGM_Ns3KIpH3hn-1" parent="XpTiEpnGM_Ns3KIpH3hn-0" />
        <mxCell id="TjpzCvI2MwY2KL3KQCRa-0" value="" style="rounded=0;whiteSpace=wrap;html=1;labelBackgroundColor=none;fillColor=#f5f5f5;fontColor=#333333;strokeColor=#666666;" vertex="1" parent="XpTiEpnGM_Ns3KIpH3hn-1">
          <mxGeometry x="185" y="660" width="200" height="250" as="geometry" />
        </mxCell>
        <mxCell id="TjpzCvI2MwY2KL3KQCRa-36" value="" style="rounded=0;whiteSpace=wrap;html=1;" vertex="1" parent="XpTiEpnGM_Ns3KIpH3hn-1">
          <mxGeometry x="480" y="510" width="240" height="250" as="geometry" />
        </mxCell>
        <mxCell id="TjpzCvI2MwY2KL3KQCRa-3" value="&lt;font color=&quot;#0066cc&quot; style=&quot;font-size: 10px;&quot;&gt;LOCAL&lt;br&gt;STORAGE&lt;/font&gt;" style="aspect=fixed;perimeter=ellipsePerimeter;html=1;align=center;shadow=0;dashed=0;spacingTop=-5;image;image=img/lib/ibm/data/data_services.svg;labelBackgroundColor=none;" vertex="1" parent="XpTiEpnGM_Ns3KIpH3hn-1">
          <mxGeometry x="199" y="847" width="32" height="31.22" as="geometry" />
        </mxCell>
        <mxCell id="TjpzCvI2MwY2KL3KQCRa-7" style="edgeStyle=isometricEdgeStyle;rounded=0;orthogonalLoop=1;jettySize=auto;html=1;startArrow=none;startFill=0;exitX=0;exitY=0.5;exitDx=0;exitDy=0;endArrow=none;endFill=0;" edge="1" parent="XpTiEpnGM_Ns3KIpH3hn-1" source="TjpzCvI2MwY2KL3KQCRa-15">
          <mxGeometry relative="1" as="geometry">
            <mxPoint x="462" y="611.75" as="sourcePoint" />
            <mxPoint x="375" y="699.4928904523088" as="targetPoint" />
          </mxGeometry>
        </mxCell>
        <mxCell id="TjpzCvI2MwY2KL3KQCRa-9" style="edgeStyle=orthogonalEdgeStyle;rounded=0;orthogonalLoop=1;jettySize=auto;html=1;entryX=1;entryY=0.5;entryDx=0;entryDy=0;jumpStyle=arc;endArrow=none;endFill=0;" edge="1" parent="XpTiEpnGM_Ns3KIpH3hn-1" source="TjpzCvI2MwY2KL3KQCRa-11" target="TjpzCvI2MwY2KL3KQCRa-27">
          <mxGeometry relative="1" as="geometry">
            <mxPoint x="528" y="439" as="sourcePoint" />
            <mxPoint x="568.9999999999907" y="825.9999999999998" as="targetPoint" />
            <Array as="points">
              <mxPoint x="348" y="787" />
            </Array>
          </mxGeometry>
        </mxCell>
        <mxCell id="TjpzCvI2MwY2KL3KQCRa-11" value="&lt;font color=&quot;#0066cc&quot; style=&quot;font-size: 10px;&quot;&gt;MEC&lt;/font&gt;" style="verticalLabelPosition=top;html=1;verticalAlign=bottom;strokeWidth=1;align=center;outlineConnect=0;dashed=0;outlineConnect=0;shape=mxgraph.aws3d.application2;fillColor=#86E83A;strokeColor=#B0F373;aspect=fixed;labelPosition=center;" vertex="1" parent="XpTiEpnGM_Ns3KIpH3hn-1">
          <mxGeometry x="328.21000000000004" y="680" width="46.79" height="40" as="geometry" />
        </mxCell>
        <mxCell id="TjpzCvI2MwY2KL3KQCRa-38" style="edgeStyle=orthogonalEdgeStyle;rounded=0;orthogonalLoop=1;jettySize=auto;html=1;entryX=0;entryY=0.5;entryDx=0;entryDy=0;endArrow=none;endFill=0;" edge="1" parent="XpTiEpnGM_Ns3KIpH3hn-1" source="TjpzCvI2MwY2KL3KQCRa-15" target="TjpzCvI2MwY2KL3KQCRa-37">
          <mxGeometry relative="1" as="geometry" />
        </mxCell>
        <mxCell id="TjpzCvI2MwY2KL3KQCRa-39" style="edgeStyle=orthogonalEdgeStyle;rounded=0;orthogonalLoop=1;jettySize=auto;html=1;entryX=0;entryY=0.5;entryDx=0;entryDy=0;exitX=0.5;exitY=0;exitDx=0;exitDy=0;endArrow=none;endFill=0;" edge="1" parent="XpTiEpnGM_Ns3KIpH3hn-1" source="TjpzCvI2MwY2KL3KQCRa-15" target="TjpzCvI2MwY2KL3KQCRa-16">
          <mxGeometry relative="1" as="geometry" />
        </mxCell>
        <mxCell id="TjpzCvI2MwY2KL3KQCRa-15" value="&lt;font style=&quot;font-size: 10px;&quot; color=&quot;#4266cc&quot;&gt;EDGE &lt;br&gt;SERVICES&lt;/font&gt;" style="image;aspect=fixed;perimeter=ellipsePerimeter;html=1;align=center;shadow=0;dashed=0;fontColor=#4277BB;labelBackgroundColor=none;fontSize=12;spacingTop=-5;image=img/lib/ibm/infrastructure/edge_services.svg;labelBorderColor=none;" vertex="1" parent="XpTiEpnGM_Ns3KIpH3hn-1">
          <mxGeometry x="492" y="590" width="45" height="45" as="geometry" />
        </mxCell>
        <mxCell id="TjpzCvI2MwY2KL3KQCRa-40" style="edgeStyle=orthogonalEdgeStyle;rounded=0;orthogonalLoop=1;jettySize=auto;html=1;entryX=0.5;entryY=0;entryDx=0;entryDy=0;endArrow=none;endFill=0;dashed=1;exitX=0;exitY=0.5;exitDx=0;exitDy=0;" edge="1" parent="XpTiEpnGM_Ns3KIpH3hn-1" source="TjpzCvI2MwY2KL3KQCRa-43" target="TjpzCvI2MwY2KL3KQCRa-37">
          <mxGeometry relative="1" as="geometry" />
        </mxCell>
        <mxCell id="TjpzCvI2MwY2KL3KQCRa-16" value="&lt;font style=&quot;font-size: 10px;&quot;&gt;EDGE&lt;br&gt;SERVER&lt;br&gt;&lt;/font&gt;" style="image;aspect=fixed;perimeter=ellipsePerimeter;html=1;align=center;shadow=0;dashed=0;fontColor=#4277BB;labelBackgroundColor=default;fontSize=12;spacingTop=-5;image=img/lib/ibm/vpc/BareMetalServer.svg;labelPosition=center;verticalLabelPosition=top;verticalAlign=bottom;" vertex="1" parent="XpTiEpnGM_Ns3KIpH3hn-1">
          <mxGeometry x="581.5" y="548" width="45" height="45" as="geometry" />
        </mxCell>
        <mxCell id="TjpzCvI2MwY2KL3KQCRa-33" style="edgeStyle=orthogonalEdgeStyle;rounded=0;orthogonalLoop=1;jettySize=auto;html=1;entryX=0;entryY=0.5;entryDx=0;entryDy=0;exitX=0.5;exitY=1;exitDx=0;exitDy=0;exitPerimeter=0;endArrow=none;endFill=0;" edge="1" parent="XpTiEpnGM_Ns3KIpH3hn-1" source="TjpzCvI2MwY2KL3KQCRa-23" target="TjpzCvI2MwY2KL3KQCRa-28">
          <mxGeometry relative="1" as="geometry" />
        </mxCell>
        <mxCell id="TjpzCvI2MwY2KL3KQCRa-23" value="" style="shape=mxgraph.signs.sports.sail_boat;html=1;pointerEvents=1;fillColor=#000000;strokeColor=none;verticalLabelPosition=bottom;verticalAlign=top;align=center;" vertex="1" parent="XpTiEpnGM_Ns3KIpH3hn-1">
          <mxGeometry x="195" y="670" width="40" height="50" as="geometry" />
        </mxCell>
        <mxCell id="TjpzCvI2MwY2KL3KQCRa-31" style="edgeStyle=orthogonalEdgeStyle;rounded=0;orthogonalLoop=1;jettySize=auto;html=1;entryX=0.5;entryY=0;entryDx=0;entryDy=0;exitX=1;exitY=0.5;exitDx=0;exitDy=0;endArrow=none;endFill=0;" edge="1" parent="XpTiEpnGM_Ns3KIpH3hn-1" source="TjpzCvI2MwY2KL3KQCRa-25" target="TjpzCvI2MwY2KL3KQCRa-27">
          <mxGeometry relative="1" as="geometry" />
        </mxCell>
        <mxCell id="TjpzCvI2MwY2KL3KQCRa-25" value="Edge&lt;br&gt;Agent" style="rounded=1;whiteSpace=wrap;html=1;" vertex="1" parent="XpTiEpnGM_Ns3KIpH3hn-1">
          <mxGeometry x="245" y="730" width="60" height="30" as="geometry" />
        </mxCell>
        <mxCell id="TjpzCvI2MwY2KL3KQCRa-27" value="Edge&lt;br&gt;Hub" style="rounded=1;whiteSpace=wrap;html=1;" vertex="1" parent="XpTiEpnGM_Ns3KIpH3hn-1">
          <mxGeometry x="280" y="770" width="60" height="30" as="geometry" />
        </mxCell>
        <mxCell id="TjpzCvI2MwY2KL3KQCRa-32" style="edgeStyle=orthogonalEdgeStyle;rounded=0;orthogonalLoop=1;jettySize=auto;html=1;entryX=0.5;entryY=1;entryDx=0;entryDy=0;exitX=1;exitY=0.5;exitDx=0;exitDy=0;endArrow=none;endFill=0;" edge="1" parent="XpTiEpnGM_Ns3KIpH3hn-1" source="TjpzCvI2MwY2KL3KQCRa-28" target="TjpzCvI2MwY2KL3KQCRa-27">
          <mxGeometry relative="1" as="geometry" />
        </mxCell>
        <mxCell id="TjpzCvI2MwY2KL3KQCRa-28" value="Log&lt;br&gt;Collector" style="rounded=1;whiteSpace=wrap;html=1;" vertex="1" parent="XpTiEpnGM_Ns3KIpH3hn-1">
          <mxGeometry x="245" y="812" width="60" height="30" as="geometry" />
        </mxCell>
        <mxCell id="TjpzCvI2MwY2KL3KQCRa-35" style="edgeStyle=orthogonalEdgeStyle;rounded=0;orthogonalLoop=1;jettySize=auto;html=1;entryX=0.428;entryY=0.978;entryDx=0;entryDy=0;entryPerimeter=0;endArrow=none;endFill=0;dashed=1;strokeColor=#ff0000;strokeWidth=2;" edge="1" parent="XpTiEpnGM_Ns3KIpH3hn-1" source="TjpzCvI2MwY2KL3KQCRa-3" target="TjpzCvI2MwY2KL3KQCRa-28">
          <mxGeometry relative="1" as="geometry" />
        </mxCell>
        <mxCell id="TjpzCvI2MwY2KL3KQCRa-37" value="&lt;font size=&quot;1&quot;&gt;ENTERPRISE&lt;br&gt;STORAGE&lt;br&gt;&lt;/font&gt;" style="aspect=fixed;perimeter=ellipsePerimeter;html=1;align=center;shadow=0;dashed=0;fontColor=#4277BB;labelBackgroundColor=#ffffff;fontSize=12;spacingTop=-5;image;image=img/lib/ibm/data/data_services.svg;" vertex="1" parent="XpTiEpnGM_Ns3KIpH3hn-1">
          <mxGeometry x="588" y="679.39" width="40" height="39.06" as="geometry" />
        </mxCell>
        <mxCell id="TjpzCvI2MwY2KL3KQCRa-41" value="sync" style="text;strokeColor=none;align=center;fillColor=none;html=1;verticalAlign=middle;whiteSpace=wrap;rounded=0;" vertex="1" parent="XpTiEpnGM_Ns3KIpH3hn-1">
          <mxGeometry x="385" y="680.61" width="60" height="30" as="geometry" />
        </mxCell>
        <mxCell id="TjpzCvI2MwY2KL3KQCRa-42" value="upload" style="text;strokeColor=none;align=center;fillColor=none;html=1;verticalAlign=middle;whiteSpace=wrap;rounded=0;" vertex="1" parent="XpTiEpnGM_Ns3KIpH3hn-1">
          <mxGeometry x="395" y="610" width="60" height="30" as="geometry" />
        </mxCell>
        <mxCell id="TjpzCvI2MwY2KL3KQCRa-43" value="&lt;font style=&quot;font-size: 10px;&quot;&gt;DASHBOARD&lt;/font&gt;" style="image;aspect=fixed;perimeter=ellipsePerimeter;html=1;align=center;shadow=0;dashed=0;fontColor=#4277BB;labelBackgroundColor=default;fontSize=12;spacingTop=-5;image=img/lib/ibm/infrastructure/dashboard.svg;" vertex="1" parent="XpTiEpnGM_Ns3KIpH3hn-1">
          <mxGeometry x="657" y="610" width="45" height="45" as="geometry" />
        </mxCell>
        <mxCell id="WSZqG0UXFp1cN73Bm85c-0" value="&lt;font color=&quot;#919191&quot;&gt;Enterprise Edge&lt;/font&gt;" style="text;strokeColor=none;align=center;fillColor=none;html=1;verticalAlign=middle;whiteSpace=wrap;rounded=0;" vertex="1" parent="XpTiEpnGM_Ns3KIpH3hn-1">
          <mxGeometry x="480" y="485" width="90" height="30" as="geometry" />
        </mxCell>
        <mxCell id="wNunn4fz2jCyaEvYOUgY-0" value="&lt;font color=&quot;#9c9c9c&quot;&gt;Disconnected Edge&lt;/font&gt;" style="text;strokeColor=none;align=center;fillColor=none;html=1;verticalAlign=middle;whiteSpace=wrap;rounded=0;" vertex="1" parent="XpTiEpnGM_Ns3KIpH3hn-1">
          <mxGeometry x="185" y="634" width="115" height="30" as="geometry" />
        </mxCell>
      </root>
    </mxGraphModel>
  </diagram>
</mxfile>
